<svg version="1.1" viewBox="0.0 0.0 960.0 540.0" fill="none" stroke="none" stroke-linecap="square" stroke-miterlimit="10" xmlns:xlink="http://www.w3.org/1999/xlink" xmlns="http://www.w3.org/2000/svg"><clipPath id="p.0"><path d="m0 0l960.0 0l0 540.0l-960.0 0l0 -540.0z" clip-rule="nonzero"/></clipPath><g clip-path="url(#p.0)"><path fill="#212121" d="m0 0l960.0 0l0 540.0l-960.0 0z" fill-rule="evenodd"/><path fill="#000000" fill-opacity="0.0" d="m25.821522 182.23228l894.55115 0l0 63.842514l-894.55115 0z" fill-rule="evenodd"/><path fill="#383838" d="m261.90125 191.23228l422.39178 0l0 23.106888l-422.39178 0l0 -23.106888z" fill-rule="nonzero"/><path fill="#000000" fill-opacity="0.0" d="m261.90125 190.91667l422.39178 0l0 23.74878l-422.39178 0l0 -23.74878z" fill-rule="nonzero"/><path fill="#d5d5d5" d="m263.57312 209.71779l0 -14.40625l4.0625 0q1.890625 0 3.328125 0.828125q1.453125 0.828125 2.234375 2.375q0.78125 1.53125 0.796875 3.515625l0 0.921875q0 2.03125 -0.796875 3.578125q-0.78125 1.53125 -2.25 2.359375q-1.453125 0.8125 -3.390625 0.828125l-3.984375 0zm1.90625 -12.84375l0 11.296875l2.0 0q2.1875 0 3.40625 -1.359375q1.234375 -1.375 1.234375 -3.90625l0 -0.84375q0 -2.453125 -1.15625 -3.8125q-1.15625 -1.359375 -3.28125 -1.375l-2.203125 0zm15.539429 13.046875q-2.171875 0 -3.546875 -1.421875q-1.359375 -1.4375 -1.359375 -3.84375l0 -0.328125q0 -1.59375 0.609375 -2.84375q0.609375 -1.25 1.703125 -1.953125q1.09375 -0.71875 2.359375 -0.71875q2.09375 0 3.25 1.375q1.15625 1.375 1.15625 3.9375l0 0.765625l-7.25 0q0.046875 1.578125 0.921875 2.5625q0.890625 0.96875 2.25 0.96875q0.96875 0 1.640625 -0.390625q0.6875 -0.40625 1.1875 -1.046875l1.109375 0.859375q-1.34375 2.078125 -4.03125 2.078125zm-0.234375 -9.609375q-1.09375 0 -1.859375 0.8125q-0.75 0.8125 -0.921875 2.265625l5.359375 0l0 -0.140625q-0.078125 -1.390625 -0.75 -2.15625q-0.671875 -0.78125 -1.828125 -0.78125zm12.7677 6.5625q0 -0.734375 -0.5625 -1.140625q-0.5625 -0.421875 -1.953125 -0.71875q-1.390625 -0.296875 -2.203125 -0.703125q-0.8125 -0.421875 -1.203125 -0.984375q-0.390625 -0.578125 -0.390625 -1.375q0 -1.3125 1.109375 -2.21875q1.109375 -0.921875 2.84375 -0.921875q1.8125 0 2.9375 0.9375q1.140625 0.9375 1.140625 2.40625l-1.828125 0q0 -0.75 -0.640625 -1.296875q-0.640625 -0.546875 -1.609375 -0.546875q-1.0 0 -1.5625 0.4375q-0.5625 0.4375 -0.5625 1.140625q0 0.65625 0.515625 1.0q0.53125 0.34375 1.890625 0.65625q1.375 0.296875 2.21875 0.71875q0.859375 0.421875 1.265625 1.03125q0.421875 0.59375 0.421875 1.453125q0 1.4375 -1.15625 2.3125q-1.140625 0.859375 -2.96875 0.859375q-1.296875 0 -2.28125 -0.453125q-0.984375 -0.46875 -1.546875 -1.28125q-0.5625 -0.8125 -0.5625 -1.765625l1.828125 0q0.046875 0.921875 0.734375 1.46875q0.703125 0.53125 1.828125 0.53125q1.03125 0 1.65625 -0.421875q0.640625 -0.421875 0.640625 -1.125zm7.746338 0.359375l2.640625 -8.21875l1.875 0l-3.84375 10.703125l-1.390625 0l-3.875 -10.703125l1.875 0l2.71875 8.21875zm10.59375 2.6875q-2.171875 0 -3.546875 -1.421875q-1.359375 -1.4375 -1.359375 -3.84375l0 -0.328125q0 -1.59375 0.609375 -2.84375q0.609375 -1.25 1.703125 -1.953125q1.09375 -0.71875 2.359375 -0.71875q2.09375 0 3.25 1.375q1.15625 1.375 1.15625 3.9375l0 0.765625l-7.25 0q0.046875 1.578125 0.921875 2.5625q0.890625 0.96875 2.25 0.96875q0.96875 0 1.640625 -0.390625q0.6875 -0.40625 1.1875 -1.046875l1.109375 0.859375q-1.34375 2.078125 -4.03125 2.078125zm-0.234375 -9.609375q-1.09375 0 -1.859375 0.8125q-0.75 0.8125 -0.921875 2.265625l5.359375 0l0 -0.140625q-0.078125 -1.390625 -0.75 -2.15625q-0.671875 -0.78125 -1.828125 -0.78125zm8.51767 9.40625l-1.828125 0l0 -15.203125l1.828125 0l0 15.203125zm9.542999 0q-0.15625 -0.3125 -0.265625 -1.125q-1.265625 1.328125 -3.046875 1.328125q-1.578125 0 -2.59375 -0.890625q-1.015625 -0.90625 -1.015625 -2.28125q0 -1.671875 1.265625 -2.59375q1.28125 -0.921875 3.578125 -0.921875l1.78125 0l0 -0.84375q0 -0.96875 -0.578125 -1.53125q-0.5625 -0.578125 -1.6875 -0.578125q-0.96875 0 -1.640625 0.5q-0.65625 0.5 -0.65625 1.203125l-1.84375 0q0 -0.8125 0.5625 -1.546875q0.578125 -0.75 1.546875 -1.1875q0.984375 -0.4375 2.140625 -0.4375q1.859375 0 2.90625 0.9375q1.046875 0.921875 1.09375 2.53125l0 4.9375q0 1.46875 0.375 2.34375l0 0.15625l-1.921875 0zm-3.046875 -1.390625q0.859375 0 1.625 -0.4375q0.78125 -0.453125 1.125 -1.171875l0 -2.1875l-1.421875 0q-3.375 0 -3.375 1.96875q0 0.859375 0.578125 1.34375q0.578125 0.484375 1.46875 0.484375zm9.179626 -9.3125l0.0625 1.34375q1.234375 -1.546875 3.203125 -1.546875q3.40625 0 3.4375 3.828125l0 7.078125l-1.84375 0l0 -7.078125q0 -1.171875 -0.53125 -1.71875q-0.515625 -0.546875 -1.609375 -0.546875q-0.890625 0 -1.5625 0.46875q-0.671875 0.46875 -1.046875 1.25l0 7.625l-1.828125 0l0 -10.703125l1.71875 0zm9.009827 5.265625q0 -2.46875 1.171875 -3.96875q1.171875 -1.5 3.0625 -1.5q1.875 0 2.96875 1.28125l0 -5.578125l1.828125 0l0 15.203125l-1.671875 0l-0.09375 -1.140625q-1.09375 1.34375 -3.0625 1.34375q-1.859375 0 -3.03125 -1.515625q-1.171875 -1.53125 -1.171875 -3.984375l0 -0.140625zm1.828125 0.203125q0 1.828125 0.75 2.859375q0.765625 1.015625 2.078125 1.015625q1.75 0 2.546875 -1.5625l0 -4.921875q-0.8125 -1.5 -2.515625 -1.5q-1.34375 0 -2.109375 1.046875q-0.75 1.03125 -0.75 3.0625zm9.569763 -0.21875q0 -1.578125 0.609375 -2.828125q0.625 -1.265625 1.71875 -1.9375q1.109375 -0.6875 2.53125 -0.6875q2.1875 0 3.53125 1.515625q1.34375 1.515625 1.34375 4.03125l0 0.125q0 1.5625 -0.59375 2.8125q-0.59375 1.234375 -1.71875 1.9375q-1.109375 0.6875 -2.546875 0.6875q-2.171875 0 -3.53125 -1.515625q-1.34375 -1.515625 -1.34375 -4.015625l0 -0.125zm1.828125 0.21875q0 1.78125 0.828125 2.859375q0.828125 1.078125 2.21875 1.078125q1.390625 0 2.203125 -1.09375q0.828125 -1.09375 0.828125 -3.0625q0 -1.765625 -0.84375 -2.859375q-0.828125 -1.09375 -2.203125 -1.09375q-1.359375 0 -2.203125 1.078125q-0.828125 1.078125 -0.828125 3.09375zm24.262146 0q0 2.4375 -1.125 3.9375q-1.109375 1.5 -3.015625 1.5q-1.953125 0 -3.0625 -1.234375l0 5.140625l-1.828125 0l0 -14.8125l1.671875 0l0.078125 1.1875q1.125 -1.390625 3.109375 -1.390625q1.9375 0 3.046875 1.453125q1.125 1.453125 1.125 4.046875l0 0.171875zm-1.828125 -0.203125q0 -1.8125 -0.765625 -2.859375q-0.765625 -1.046875 -2.125 -1.046875q-1.65625 0 -2.484375 1.46875l0 5.109375q0.8125 1.46875 2.515625 1.46875q1.3125 0 2.078125 -1.046875q0.78125 -1.046875 0.78125 -3.09375zm10.776001 5.4375q-0.15625 -0.3125 -0.265625 -1.125q-1.265625 1.328125 -3.046875 1.328125q-1.578125 0 -2.59375 -0.890625q-1.015625 -0.90625 -1.015625 -2.28125q0 -1.671875 1.265625 -2.59375q1.28125 -0.921875 3.578125 -0.921875l1.78125 0l0 -0.84375q0 -0.96875 -0.578125 -1.53125q-0.5625 -0.578125 -1.6875 -0.578125q-0.96875 0 -1.640625 0.5q-0.65625 0.5 -0.65625 1.203125l-1.84375 0q0 -0.8125 0.5625 -1.546875q0.578125 -0.75 1.546875 -1.1875q0.984375 -0.4375 2.140625 -0.4375q1.859375 0 2.90625 0.9375q1.046875 0.921875 1.09375 2.53125l0 4.9375q0 1.46875 0.375 2.34375l0 0.15625l-1.921875 0zm-3.046875 -1.390625q0.859375 0 1.625 -0.4375q0.78125 -0.453125 1.125 -1.171875l0 -2.1875l-1.421875 0q-3.375 0 -3.375 1.96875q0 0.859375 0.578125 1.34375q0.578125 0.484375 1.46875 0.484375zm9.945251 -11.90625l0 2.59375l2.0 0l0 1.40625l-2.0 0l0 6.640625q0 0.640625 0.265625 0.96875q0.265625 0.328125 0.90625 0.328125q0.3125 0 0.875 -0.125l0 1.484375q-0.734375 0.203125 -1.40625 0.203125q-1.234375 0 -1.859375 -0.734375q-0.625 -0.75 -0.625 -2.125l0 -6.640625l-1.9375 0l0 -1.40625l1.9375 0l0 -2.59375l1.84375 0zm9.307495 4.234375q-0.421875 -0.078125 -0.90625 -0.078125q-1.796875 0 -2.4375 1.546875l0 7.59375l-1.828125 0l0 -10.703125l1.78125 0l0.03125 1.234375q0.890625 -1.4375 2.546875 -1.4375q0.53125 0 0.8125 0.140625l0 1.703125zm1.0032959 3.609375q0 -1.578125 0.609375 -2.828125q0.625 -1.265625 1.71875 -1.9375q1.109375 -0.6875 2.53125 -0.6875q2.1875 0 3.53125 1.515625q1.34375 1.515625 1.34375 4.03125l0 0.125q0 1.5625 -0.59375 2.8125q-0.59375 1.234375 -1.71875 1.9375q-1.109375 0.6875 -2.546875 0.6875q-2.171875 0 -3.53125 -1.515625q-1.34375 -1.515625 -1.34375 -4.015625l0 -0.125zm1.828125 0.21875q0 1.78125 0.828125 2.859375q0.828125 1.078125 2.21875 1.078125q1.390625 0 2.203125 -1.09375q0.828125 -1.09375 0.828125 -3.0625q0 -1.765625 -0.84375 -2.859375q-0.828125 -1.09375 -2.203125 -1.09375q-1.359375 0 -2.203125 1.078125q-0.828125 1.078125 -0.828125 3.09375zm11.932739 -5.46875l0.0625 1.34375q1.234375 -1.546875 3.203125 -1.546875q3.40625 0 3.4375 3.828125l0 7.078125l-1.84375 0l0 -7.078125q0 -1.171875 -0.53125 -1.71875q-0.515625 -0.546875 -1.609375 -0.546875q-0.890625 0 -1.5625 0.46875q-0.671875 0.46875 -1.046875 1.25l0 7.625l-1.828125 0l0 -10.703125l1.71875 0zm13.900452 10.90625q-2.171875 0 -3.546875 -1.421875q-1.359375 -1.4375 -1.359375 -3.84375l0 -0.328125q0 -1.59375 0.609375 -2.84375q0.609375 -1.25 1.703125 -1.953125q1.09375 -0.71875 2.359375 -0.71875q2.09375 0 3.25 1.375q1.15625 1.375 1.15625 3.9375l0 0.765625l-7.25 0q0.046875 1.578125 0.921875 2.5625q0.890625 0.96875 2.25 0.96875q0.96875 0 1.640625 -0.390625q0.6875 -0.40625 1.1875 -1.046875l1.109375 0.859375q-1.34375 2.078125 -4.03125 2.078125zm-0.234375 -9.609375q-1.09375 0 -1.859375 0.8125q-0.75 0.8125 -0.921875 2.265625l5.359375 0l0 -0.140625q-0.078125 -1.390625 -0.75 -2.15625q-0.671875 -0.78125 -1.828125 -0.78125zm12.7677 6.5625q0 -0.734375 -0.5625 -1.140625q-0.5625 -0.421875 -1.953125 -0.71875q-1.390625 -0.296875 -2.203125 -0.703125q-0.8125 -0.421875 -1.203125 -0.984375q-0.390625 -0.578125 -0.390625 -1.375q0 -1.3125 1.109375 -2.21875q1.109375 -0.921875 2.84375 -0.921875q1.8125 0 2.9375 0.9375q1.140625 0.9375 1.140625 2.40625l-1.828125 0q0 -0.75 -0.640625 -1.296875q-0.640625 -0.546875 -1.609375 -0.546875q-1.0 0 -1.5625 0.4375q-0.5625 0.4375 -0.5625 1.140625q0 0.65625 0.515625 1.0q0.53125 0.34375 1.890625 0.65625q1.375 0.296875 2.21875 0.71875q0.859375 0.421875 1.265625 1.03125q0.421875 0.59375 0.421875 1.453125q0 1.4375 -1.15625 2.3125q-1.140625 0.859375 -2.96875 0.859375q-1.296875 0 -2.28125 -0.453125q-0.984375 -0.46875 -1.546875 -1.28125q-0.5625 -0.8125 -0.5625 -1.765625l1.828125 0q0.046875 0.921875 0.734375 1.46875q0.703125 0.53125 1.828125 0.53125q1.03125 0 1.65625 -0.421875q0.640625 -0.421875 0.640625 -1.125zm12.731995 0.15625l2.484375 -8.015625l1.96875 0l-4.3125 12.359375q-1.0 2.671875 -3.171875 2.671875l-0.34375 -0.03125l-0.6875 -0.125l0 -1.484375l0.5 0.03125q0.921875 0 1.4375 -0.375q0.53125 -0.375 0.859375 -1.375l0.40625 -1.09375l-3.8125 -10.578125l2.0 0l2.671875 8.015625zm13.589905 -10.609375l0 2.59375l2.0 0l0 1.40625l-2.0 0l0 6.640625q0 0.640625 0.265625 0.96875q0.265625 0.328125 0.90625 0.328125q0.3125 0 0.875 -0.125l0 1.484375q-0.734375 0.203125 -1.40625 0.203125q-1.234375 0 -1.859375 -0.734375q-0.625 -0.75 -0.625 -2.125l0 -6.640625l-1.9375 0l0 -1.40625l1.9375 0l0 -2.59375l1.84375 0zm8.57312 13.5q-2.171875 0 -3.546875 -1.421875q-1.359375 -1.4375 -1.359375 -3.84375l0 -0.328125q0 -1.59375 0.609375 -2.84375q0.609375 -1.25 1.703125 -1.953125q1.09375 -0.71875 2.359375 -0.71875q2.09375 0 3.25 1.375q1.15625 1.375 1.15625 3.9375l0 0.765625l-7.25 0q0.046875 1.578125 0.921875 2.5625q0.890625 0.96875 2.25 0.96875q0.96875 0 1.640625 -0.390625q0.6875 -0.40625 1.1875 -1.046875l1.109375 0.859375q-1.34375 2.078125 -4.03125 2.078125zm-0.234375 -9.609375q-1.09375 0 -1.859375 0.8125q-0.75 0.8125 -0.921875 2.265625l5.359375 0l0 -0.140625q-0.078125 -1.390625 -0.75 -2.15625q-0.671875 -0.78125 -1.828125 -0.78125zm8.252045 -1.296875l0.0625 1.34375q1.234375 -1.546875 3.203125 -1.546875q3.40625 0 3.4375 3.828125l0 7.078125l-1.84375 0l0 -7.078125q0 -1.171875 -0.53125 -1.71875q-0.515625 -0.546875 -1.609375 -0.546875q-0.890625 0 -1.5625 0.46875q-0.671875 0.46875 -1.046875 1.25l0 7.625l-1.828125 0l0 -10.703125l1.71875 0zm9.009857 5.265625q0 -2.46875 1.171875 -3.96875q1.171875 -1.5 3.0625 -1.5q1.875 0 2.96875 1.28125l0 -5.578125l1.828125 0l0 15.203125l-1.671875 0l-0.09375 -1.140625q-1.09375 1.34375 -3.0625 1.34375q-1.859375 0 -3.03125 -1.515625q-1.171875 -1.53125 -1.171875 -3.984375l0 -0.140625zm1.828125 0.203125q0 1.828125 0.75 2.859375q0.765625 1.015625 2.078125 1.015625q1.75 0 2.546875 -1.5625l0 -4.921875q-0.8125 -1.5 -2.515625 -1.5q-1.34375 0 -2.109375 1.046875q-0.75 1.03125 -0.75 3.0625zm14.491577 5.4375q-2.171875 0 -3.546875 -1.421875q-1.359375 -1.4375 -1.359375 -3.84375l0 -0.328125q0 -1.59375 0.609375 -2.84375q0.609375 -1.25 1.703125 -1.953125q1.09375 -0.71875 2.359375 -0.71875q2.09375 0 3.25 1.375q1.15625 1.375 1.15625 3.9375l0 0.765625l-7.25 0q0.046875 1.578125 0.921875 2.5625q0.890625 0.96875 2.25 0.96875q0.96875 0 1.640625 -0.390625q0.6875 -0.40625 1.1875 -1.046875l1.109375 0.859375q-1.34375 2.078125 -4.03125 2.078125zm-0.234375 -9.609375q-1.09375 0 -1.859375 0.8125q-0.75 0.8125 -0.921875 2.265625l5.359375 0l0 -0.140625q-0.078125 -1.390625 -0.75 -2.15625q-0.671875 -0.78125 -1.828125 -0.78125zm8.252075 -1.296875l0.0625 1.34375q1.234375 -1.546875 3.203125 -1.546875q3.40625 0 3.4375 3.828125l0 7.078125l-1.84375 0l0 -7.078125q0 -1.171875 -0.53125 -1.71875q-0.515625 -0.546875 -1.609375 -0.546875q-0.890625 0 -1.5625 0.46875q-0.671875 0.46875 -1.046875 1.25l0 7.625l-1.828125 0l0 -10.703125l1.71875 0zm13.759827 9.40625q0.96875 0 1.703125 -0.59375q0.734375 -0.59375 0.8125 -1.484375l1.734375 0q-0.046875 0.921875 -0.640625 1.75q-0.578125 0.828125 -1.5625 1.328125q-0.96875 0.5 -2.046875 0.5q-2.1875 0 -3.484375 -1.453125q-1.296875 -1.46875 -1.296875 -4.0l0 -0.3125q0 -1.5625 0.578125 -2.78125q0.578125 -1.21875 1.640625 -1.890625q1.078125 -0.671875 2.546875 -0.671875q1.796875 0 2.984375 1.078125q1.203125 1.078125 1.28125 2.796875l-1.734375 0q-0.078125 -1.03125 -0.796875 -1.703125q-0.703125 -0.671875 -1.734375 -0.671875q-1.390625 0 -2.171875 1.015625q-0.765625 1.0 -0.765625 2.90625l0 0.34375q0 1.84375 0.765625 2.84375q0.765625 1.0 2.1875 1.0zm8.295288 1.296875l-1.828125 0l0 -10.703125l1.828125 0l0 10.703125zm-1.984375 -13.546875q0 -0.4375 0.265625 -0.75q0.28125 -0.3125 0.8125 -0.3125q0.546875 0 0.8125 0.3125q0.28125 0.3125 0.28125 0.765625q0 0.4375 -0.28125 0.734375q-0.265625 0.296875 -0.8125 0.296875q-0.53125 0 -0.8125 -0.296875q-0.265625 -0.296875 -0.265625 -0.75zm11.527344 13.546875q-0.15625 -0.3125 -0.265625 -1.125q-1.265625 1.328125 -3.046875 1.328125q-1.578125 0 -2.59375 -0.890625q-1.015625 -0.90625 -1.015625 -2.28125q0 -1.671875 1.265625 -2.59375q1.28125 -0.921875 3.578125 -0.921875l1.78125 0l0 -0.84375q0 -0.96875 -0.578125 -1.53125q-0.5625 -0.578125 -1.6875 -0.578125q-0.96875 0 -1.640625 0.5q-0.65625 0.5 -0.65625 1.203125l-1.84375 0q0 -0.8125 0.5625 -1.546875q0.578125 -0.75 1.546875 -1.1875q0.984375 -0.4375 2.140625 -0.4375q1.859375 0 2.90625 0.9375q1.046875 0.921875 1.09375 2.53125l0 4.9375q0 1.46875 0.375 2.34375l0 0.15625l-1.921875 0zm-3.046875 -1.390625q0.859375 0 1.625 -0.4375q0.78125 -0.453125 1.125 -1.171875l0 -2.1875l-1.421875 0q-3.375 0 -3.375 1.96875q0 0.859375 0.578125 1.34375q0.578125 0.484375 1.46875 0.484375zm13.695251 -1.453125q0 -0.734375 -0.5625 -1.140625q-0.5625 -0.421875 -1.953125 -0.71875q-1.390625 -0.296875 -2.203125 -0.703125q-0.8125 -0.421875 -1.203125 -0.984375q-0.390625 -0.578125 -0.390625 -1.375q0 -1.3125 1.109375 -2.21875q1.109375 -0.921875 2.84375 -0.921875q1.8125 0 2.9375 0.9375q1.140625 0.9375 1.140625 2.40625l-1.828125 0q0 -0.75 -0.640625 -1.296875q-0.640625 -0.546875 -1.609375 -0.546875q-1.0 0 -1.5625 0.4375q-0.5625 0.4375 -0.5625 1.140625q0 0.65625 0.515625 1.0q0.53125 0.34375 1.890625 0.65625q1.375 0.296875 2.21875 0.71875q0.859375 0.421875 1.265625 1.03125q0.421875 0.59375 0.421875 1.453125q0 1.4375 -1.15625 2.3125q-1.140625 0.859375 -2.96875 0.859375q-1.296875 0 -2.28125 -0.453125q-0.984375 -0.46875 -1.546875 -1.28125q-0.5625 -0.8125 -0.5625 -1.765625l1.828125 0q0.046875 0.921875 0.734375 1.46875q0.703125 0.53125 1.828125 0.53125q1.03125 0 1.65625 -0.421875q0.640625 -0.421875 0.640625 -1.125zm18.263245 -2.390625q0 2.4375 -1.125 3.9375q-1.109375 1.5 -3.015625 1.5q-1.953125 0 -3.0625 -1.234375l0 5.140625l-1.828125 0l0 -14.8125l1.671875 0l0.078125 1.1875q1.125 -1.390625 3.109375 -1.390625q1.9375 0 3.046875 1.453125q1.125 1.453125 1.125 4.046875l0 0.171875zm-1.828125 -0.203125q0 -1.8125 -0.765625 -2.859375q-0.765625 -1.046875 -2.125 -1.046875q-1.65625 0 -2.484375 1.46875l0 5.109375q0.8125 1.46875 2.515625 1.46875q1.3125 0 2.078125 -1.046875q0.78125 -1.046875 0.78125 -3.09375zm10.776001 5.4375q-0.15625 -0.3125 -0.265625 -1.125q-1.265625 1.328125 -3.046875 1.328125q-1.578125 0 -2.59375 -0.890625q-1.015625 -0.90625 -1.015625 -2.28125q0 -1.671875 1.265625 -2.59375q1.28125 -0.921875 3.578125 -0.921875l1.78125 0l0 -0.84375q0 -0.96875 -0.578125 -1.53125q-0.5625 -0.578125 -1.6875 -0.578125q-0.96875 0 -1.640625 0.5q-0.65625 0.5 -0.65625 1.203125l-1.84375 0q0 -0.8125 0.5625 -1.546875q0.578125 -0.75 1.546875 -1.1875q0.984375 -0.4375 2.140625 -0.4375q1.859375 0 2.90625 0.9375q1.046875 0.921875 1.09375 2.53125l0 4.9375q0 1.46875 0.375 2.34375l0 0.15625l-1.921875 0zm-3.046875 -1.390625q0.859375 0 1.625 -0.4375q0.78125 -0.453125 1.125 -1.171875l0 -2.1875l-1.421875 0q-3.375 0 -3.375 1.96875q0 0.859375 0.578125 1.34375q0.578125 0.484375 1.46875 0.484375zm12.632751 -7.671875q-0.421875 -0.078125 -0.90625 -0.078125q-1.796875 0 -2.4375 1.546875l0 7.59375l-1.828125 0l0 -10.703125l1.78125 0l0.03125 1.234375q0.890625 -1.4375 2.546875 -1.4375q0.53125 0 0.8125 0.140625l0 1.703125zm7.899109 9.0625q-0.15625 -0.3125 -0.265625 -1.125q-1.265625 1.328125 -3.046875 1.328125q-1.578125 0 -2.59375 -0.890625q-1.015625 -0.90625 -1.015625 -2.28125q0 -1.671875 1.265625 -2.59375q1.28125 -0.921875 3.578125 -0.921875l1.78125 0l0 -0.84375q0 -0.96875 -0.578125 -1.53125q-0.5625 -0.578125 -1.6875 -0.578125q-0.96875 0 -1.640625 0.5q-0.65625 0.5 -0.65625 1.203125l-1.84375 0q0 -0.8125 0.5625 -1.546875q0.578125 -0.75 1.546875 -1.1875q0.984375 -0.4375 2.140625 -0.4375q1.859375 0 2.90625 0.9375q1.046875 0.921875 1.09375 2.53125l0 4.9375q0 1.46875 0.375 2.34375l0 0.15625l-1.921875 0zm-3.046875 -1.390625q0.859375 0 1.625 -0.4375q0.78125 -0.453125 1.125 -1.171875l0 -2.1875l-1.421875 0q-3.375 0 -3.375 1.96875q0 0.859375 0.578125 1.34375q0.578125 0.484375 1.46875 0.484375zm16.915283 1.59375q-2.171875 0 -3.546875 -1.421875q-1.359375 -1.4375 -1.359375 -3.84375l0 -0.328125q0 -1.59375 0.609375 -2.84375q0.609375 -1.25 1.703125 -1.953125q1.09375 -0.71875 2.359375 -0.71875q2.09375 0 3.25 1.375q1.15625 1.375 1.15625 3.9375l0 0.765625l-7.25 0q0.046875 1.578125 0.921875 2.5625q0.890625 0.96875 2.25 0.96875q0.96875 0 1.640625 -0.390625q0.6875 -0.40625 1.1875 -1.046875l1.109375 0.859375q-1.34375 2.078125 -4.03125 2.078125zm-0.234375 -9.609375q-1.09375 0 -1.859375 0.8125q-0.75 0.8125 -0.921875 2.265625l5.359375 0l0 -0.140625q-0.078125 -1.390625 -0.75 -2.15625q-0.671875 -0.78125 -1.828125 -0.78125zm8.5177 9.40625l-1.828125 0l0 -15.203125l1.828125 0l0 15.203125zm12.388062 0.203125q-2.171875 0 -3.546875 -1.421875q-1.359375 -1.4375 -1.359375 -3.84375l0 -0.328125q0 -1.59375 0.609375 -2.84375q0.609375 -1.25 1.703125 -1.953125q1.09375 -0.71875 2.359375 -0.71875q2.09375 0 3.25 1.375q1.15625 1.375 1.15625 3.9375l0 0.765625l-7.25 0q0.046875 1.578125 0.921875 2.5625q0.890625 0.96875 2.25 0.96875q0.96875 0 1.640625 -0.390625q0.6875 -0.40625 1.1875 -1.046875l1.109375 0.859375q-1.34375 2.078125 -4.03125 2.078125zm-0.234375 -9.609375q-1.09375 0 -1.859375 0.8125q-0.75 0.8125 -0.921875 2.265625l5.359375 0l0 -0.140625q-0.078125 -1.390625 -0.75 -2.15625q-0.671875 -0.78125 -1.828125 -0.78125zm0.890625 -5.796875l2.21875 0l-2.65625 2.90625l-1.46875 0l1.90625 -2.90625zm9.236389 8.40625l2.375 -3.90625l2.125 0l-3.5 5.296875l3.609375 5.40625l-2.109375 0l-2.484375 -4.0l-2.46875 4.0l-2.125 0l3.609375 -5.40625l-3.5 -5.296875l2.109375 0l2.359375 3.90625zm8.434387 6.796875l-1.828125 0l0 -10.703125l1.828125 0l0 10.703125zm-1.984375 -13.546875q0 -0.4375 0.265625 -0.75q0.28125 -0.3125 0.8125 -0.3125q0.546875 0 0.8125 0.3125q0.28125 0.3125 0.28125 0.765625q0 0.4375 -0.28125 0.734375q-0.265625 0.296875 -0.8125 0.296875q-0.53125 0 -0.8125 -0.296875q-0.265625 -0.296875 -0.265625 -0.75zm7.4023438 0.25l0 2.59375l2.0 0l0 1.40625l-2.0 0l0 6.640625q0 0.640625 0.265625 0.96875q0.265625 0.328125 0.90625 0.328125q0.3125 0 0.875 -0.125l0 1.484375q-0.734375 0.203125 -1.40625 0.203125q-1.234375 0 -1.859375 -0.734375q-0.625 -0.75 -0.625 -2.125l0 -6.640625l-1.9375 0l0 -1.40625l1.9375 0l0 -2.59375l1.84375 0zm3.453308 7.84375q0 -1.578125 0.609375 -2.828125q0.625 -1.265625 1.71875 -1.9375q1.109375 -0.6875 2.53125 -0.6875q2.1875 0 3.53125 1.515625q1.34375 1.515625 1.34375 4.03125l0 0.125q0 1.5625 -0.59375 2.8125q-0.59375 1.234375 -1.71875 1.9375q-1.109375 0.6875 -2.546875 0.6875q-2.171875 0 -3.53125 -1.515625q-1.34375 -1.515625 -1.34375 -4.015625l0 -0.125zm1.828125 0.21875q0 1.78125 0.828125 2.859375q0.828125 1.078125 2.21875 1.078125q1.390625 0 2.203125 -1.09375q0.828125 -1.09375 0.828125 -3.0625q0 -1.765625 -0.84375 -2.859375q-0.828125 -1.09375 -2.203125 -1.09375q-1.359375 0 -2.203125 1.078125q-0.828125 1.078125 -0.828125 3.09375z" fill-rule="nonzero"/><path fill="#000000" fill-opacity="0.0" d="m684.293 190.91667l0 0l0 23.74878l0 0l0 -23.74878z" fill-rule="nonzero"/><path fill="#d5d5d5" d="m261.90125 211.0353l422.39178 0l0 1.8242188l-422.39178 0l0 -1.8242188z" fill-rule="nonzero"/><path fill="#000000" fill-opacity="0.0" d="m25.821522 74.71916l894.55115 0l0 83.2126l-894.55115 0z" fill-rule="evenodd"/><path fill="#383838" d="m340.49915 101.73176l265.19592 0l0 47.200005l-265.19592 0l0 -47.200005z" fill-rule="nonzero"/><path fill="#000000" fill-opacity="0.0" d="m340.49915 103.00571l265.19592 0l0 46.087646l-265.19592 0l0 -46.087646z" fill-rule="nonzero"/><path fill="#d5d5d5" d="m358.7804 133.72614l-10.09375 0l-1.921875 5.765625l-6.125 0l10.40625 -27.953125l5.328125 0l10.46875 27.953125l-6.125 0l-1.9375 -5.765625zm-8.546875 -4.65625l6.984375 0l-3.5 -10.46875l-3.484375 10.46875zm23.0401 -10.359375l0.171875 2.40625q2.234375 -2.78125 5.984375 -2.78125q3.296875 0 4.90625 1.9375q1.609375 1.9375 1.65625 5.796875l0 13.421875l-5.546875 0l0 -13.28125q0 -1.78125 -0.78125 -2.578125q-0.765625 -0.796875 -2.546875 -0.796875q-2.34375 0 -3.515625 2.0l0 14.65625l-5.546875 0l0 -20.78125l5.21875 0zm22.776062 20.78125l-5.5625 0l0 -20.78125l5.5625 0l0 20.78125zm-5.890625 -26.15625q0 -1.25 0.828125 -2.046875q0.84375 -0.8125 2.28125 -0.8125q1.421875 0 2.265625 0.8125q0.84375 0.796875 0.84375 2.046875q0 1.265625 -0.859375 2.078125q-0.84375 0.796875 -2.25 0.796875q-1.40625 0 -2.265625 -0.796875q-0.84375 -0.8125 -0.84375 -2.078125zm15.661743 5.375l0.1875 2.328125q2.203125 -2.703125 5.96875 -2.703125q4.015625 0 5.5 3.15625q2.203125 -3.15625 6.25 -3.15625q3.375 0 5.03125 1.96875q1.65625 1.96875 1.65625 5.921875l0 13.265625l-5.578125 0l0 -13.25q0 -1.765625 -0.6875 -2.578125q-0.6875 -0.828125 -2.4375 -0.828125q-2.5 0 -3.453125 2.390625l0.015625 14.265625l-5.546875 0l0 -13.234375q0 -1.796875 -0.71875 -2.609375q-0.703125 -0.8125 -2.421875 -0.8125q-2.359375 0 -3.40625 1.96875l0 14.6875l-5.5625 0l0 -20.78125l5.203125 0zm38.406616 21.171875q-4.5625 0 -7.4375 -2.796875q-2.875 -2.8125 -2.875 -7.484375l0 -0.53125q0 -3.140625 1.203125 -5.609375q1.21875 -2.46875 3.4375 -3.796875q2.21875 -1.328125 5.0625 -1.328125q4.265625 0 6.703125 2.6875q2.453125 2.6875 2.453125 7.625l0 2.265625l-13.21875 0q0.265625 2.03125 1.609375 3.265625q1.359375 1.21875 3.4375 1.21875q3.203125 0 5.015625 -2.3125l2.71875 3.046875q-1.25 1.765625 -3.390625 2.765625q-2.125 0.984375 -4.71875 0.984375zm-0.625 -17.0625q-1.65625 0 -2.6875 1.125q-1.015625 1.109375 -1.3125 3.1875l7.71875 0l0 -0.453125q-0.03125 -1.84375 -1.0 -2.84375q-0.953125 -1.015625 -2.71875 -1.015625zm28.614075 16.671875l-5.765625 0l0 -27.953125l5.765625 0l0 27.953125zm10.073669 -20.78125l0.171875 2.40625q2.234375 -2.78125 5.984375 -2.78125q3.296875 0 4.90625 1.9375q1.609375 1.9375 1.65625 5.796875l0 13.421875l-5.546875 0l0 -13.28125q0 -1.78125 -0.78125 -2.578125q-0.765625 -0.796875 -2.546875 -0.796875q-2.34375 0 -3.515625 2.0l0 14.65625l-5.546875 0l0 -20.78125l5.21875 0zm28.182312 15.046875q0 -1.03125 -1.015625 -1.609375q-1.0 -0.59375 -3.234375 -1.046875q-7.40625 -1.5625 -7.40625 -6.296875q0 -2.765625 2.28125 -4.609375q2.296875 -1.859375 6.015625 -1.859375q3.953125 0 6.3125 1.859375q2.375 1.859375 2.375 4.84375l-5.546875 0q0 -1.203125 -0.765625 -1.96875q-0.765625 -0.78125 -2.40625 -0.78125q-1.390625 0 -2.171875 0.640625q-0.765625 0.625 -0.765625 1.609375q0 0.921875 0.875 1.484375q0.875 0.5625 2.953125 0.984375q2.078125 0.40625 3.5 0.921875q4.390625 1.609375 4.390625 5.59375q0 2.84375 -2.4375 4.609375q-2.4375 1.75 -6.296875 1.75q-2.609375 0 -4.640625 -0.9375q-2.03125 -0.9375 -3.1875 -2.546875q-1.140625 -1.625 -1.140625 -3.515625l5.265625 0q0.0625 1.484375 1.078125 2.28125q1.03125 0.78125 2.734375 0.78125q1.59375 0 2.40625 -0.609375q0.828125 -0.609375 0.828125 -1.578125zm14.814697 5.734375l-5.5625 0l0 -20.78125l5.5625 0l0 20.78125zm-5.890625 -26.15625q0 -1.25 0.828125 -2.046875q0.84375 -0.8125 2.28125 -0.8125q1.421875 0 2.265625 0.8125q0.84375 0.796875 0.84375 2.046875q0 1.265625 -0.859375 2.078125q-0.84375 0.796875 -2.25 0.796875q-1.40625 0 -2.265625 -0.796875q-0.84375 -0.8125 -0.84375 -2.078125zm9.661743 15.609375q0 -4.78125 2.265625 -7.6875q2.28125 -2.921875 6.140625 -2.921875q3.421875 0 5.328125 2.34375l0.21875 -1.96875l5.03125 0l0 20.09375q0 2.71875 -1.234375 4.734375q-1.234375 2.015625 -3.484375 3.078125q-2.25 1.0625 -5.265625 1.0625q-2.28125 0 -4.453125 -0.921875q-2.171875 -0.90625 -3.28125 -2.34375l2.453125 -3.390625q2.078125 2.328125 5.03125 2.328125q2.21875 0 3.4375 -1.1875q1.234375 -1.171875 1.234375 -3.34375l0 -1.109375q-1.921875 2.171875 -5.046875 2.171875q-3.75 0 -6.0625 -2.921875q-2.3125 -2.9375 -2.3125 -7.78125l0 -0.234375zm5.546875 0.40625q0 2.828125 1.125 4.4375q1.140625 1.59375 3.125 1.59375q2.53125 0 3.625 -1.90625l0 -8.734375q-1.109375 -1.90625 -3.59375 -1.90625q-2.0 0 -3.140625 1.640625q-1.140625 1.625 -1.140625 4.875zm23.120422 -8.375q2.203125 -2.640625 5.546875 -2.640625q6.765625 0 6.859375 7.84375l0 13.3125l-5.546875 0l0 -13.15625q0 -1.78125 -0.78125 -2.640625q-0.765625 -0.859375 -2.546875 -0.859375q-2.4375 0 -3.53125 1.890625l0 14.765625l-5.546875 0l0 -29.5l5.546875 0l0 10.984375zm23.24121 -7.375l0 5.109375l3.546875 0l0 4.078125l-3.546875 0l0 10.359375q0 1.15625 0.4375 1.65625q0.4375 0.5 1.6875 0.5q0.921875 0 1.640625 -0.140625l0 4.21875q-1.640625 0.5 -3.375 0.5q-5.828125 0 -5.953125 -5.90625l0 -11.1875l-3.03125 0l0 -4.078125l3.03125 0l0 -5.109375l5.5625 0zm17.89795 20.15625q0 -1.03125 -1.015625 -1.609375q-1.0 -0.59375 -3.234375 -1.046875q-7.40625 -1.5625 -7.40625 -6.296875q0 -2.765625 2.28125 -4.609375q2.296875 -1.859375 6.015625 -1.859375q3.953125 0 6.3125 1.859375q2.375 1.859375 2.375 4.84375l-5.546875 0q0 -1.203125 -0.765625 -1.96875q-0.765625 -0.78125 -2.40625 -0.78125q-1.390625 0 -2.171875 0.640625q-0.765625 0.625 -0.765625 1.609375q0 0.921875 0.875 1.484375q0.875 0.5625 2.953125 0.984375q2.078125 0.40625 3.5 0.921875q4.390625 1.609375 4.390625 5.59375q0 2.84375 -2.4375 4.609375q-2.4375 1.75 -6.296875 1.75q-2.609375 0 -4.640625 -0.9375q-2.03125 -0.9375 -3.1875 -2.546875q-1.140625 -1.625 -1.140625 -3.515625l5.265625 0q0.0625 1.484375 1.078125 2.28125q1.03125 0.78125 2.734375 0.78125q1.59375 0 2.40625 -0.609375q0.828125 -0.609375 0.828125 -1.578125z" fill-rule="nonzero"/><path fill="#000000" fill-opacity="0.0" d="m605.69507 103.00571l9.79364 0l0 46.087646l-9.79364 0l0 -46.087646z" fill-rule="nonzero"/><path fill="#010000" fill-opacity="0.0" d="m615.4887 64.66525l0 0l0 95.046616l0 0l0 -95.046616z" fill-rule="nonzero"/><path fill="#d5d5d5" d="m340.49915 142.04843l265.19592 0l0 3.5399933l-265.19592 0l0 -3.5399933z" fill-rule="nonzero"/><path fill="#000000" fill-opacity="0.0" d="m585.47766 418.75067l326.0788 0l0 83.212585l-326.0788 0z" fill-rule="evenodd"/><path fill="#adadad" d="m594.4464 450.79065l6.59375 -17.1875l2.453125 0l7.03125 17.1875l-2.59375 0l-2.0 -5.203125l-7.1875 0l-1.890625 5.203125l-2.40625 0zm4.953125 -7.0625l5.828125 0l-1.796875 -4.75q-0.8125 -2.171875 -1.21875 -3.5625q-0.328125 1.65625 -0.921875 3.28125l-1.890625 5.03125zm20.820312 7.0625l0 -1.828125q-1.453125 2.109375 -3.9375 2.109375q-1.109375 0 -2.0625 -0.421875q-0.953125 -0.421875 -1.421875 -1.0625q-0.453125 -0.640625 -0.640625 -1.5625q-0.140625 -0.625 -0.140625 -1.96875l0 -7.71875l2.109375 0l0 6.90625q0 1.65625 0.140625 2.234375q0.1875 0.828125 0.828125 1.3125q0.65625 0.46875 1.609375 0.46875q0.9375 0 1.765625 -0.484375q0.84375 -0.5 1.1875 -1.328125q0.34375 -0.84375 0.34375 -2.4375l0 -6.671875l2.109375 0l0 12.453125l-1.890625 0zm9.800781 -1.890625l0.3125 1.859375q-0.890625 0.203125 -1.59375 0.203125q-1.15625 0 -1.796875 -0.359375q-0.625 -0.375 -0.890625 -0.96875q-0.25 -0.59375 -0.25 -2.484375l0 -7.171875l-1.546875 0l0 -1.640625l1.546875 0l0 -3.078125l2.09375 -1.265625l0 4.34375l2.125 0l0 1.640625l-2.125 0l0 7.28125q0 0.90625 0.109375 1.171875q0.125 0.25 0.375 0.40625q0.25 0.140625 0.71875 0.140625q0.34375 0 0.921875 -0.078125zm1.2773438 -4.328125q0 -3.46875 1.921875 -5.125q1.609375 -1.390625 3.921875 -1.390625q2.5625 0 4.1875 1.6875q1.625 1.6875 1.625 4.640625q0 2.40625 -0.71875 3.78125q-0.71875 1.375 -2.09375 2.140625q-1.375 0.765625 -3.0 0.765625q-2.625 0 -4.234375 -1.671875q-1.609375 -1.6875 -1.609375 -4.828125zm2.171875 0q0 2.390625 1.03125 3.578125q1.046875 1.1875 2.640625 1.1875q1.5625 0 2.609375 -1.1875q1.046875 -1.203125 1.046875 -3.65625q0 -2.3125 -1.0625 -3.5q-1.046875 -1.1875 -2.59375 -1.1875q-1.59375 0 -2.640625 1.1875q-1.03125 1.1875 -1.03125 3.578125zm11.941406 6.21875l0 -12.453125l1.890625 0l0 1.890625q0.734375 -1.328125 1.34375 -1.75q0.625 -0.421875 1.359375 -0.421875q1.0625 0 2.171875 0.6875l-0.734375 1.953125q-0.765625 -0.453125 -1.546875 -0.453125q-0.6875 0 -1.25 0.421875q-0.546875 0.40625 -0.78125 1.140625q-0.34375 1.125 -0.34375 2.46875l0 6.515625l-2.109375 0zm8.6015625 -10.046875l0 -2.40625l2.40625 0l0 2.40625l-2.40625 0zm0 10.046875l0 -2.40625l2.40625 0l0 2.40625l-2.40625 0z" fill-rule="nonzero"/><path fill="#adadad" d="m604.3683 472.8563l0 -2.015625l7.28125 -0.015625l0 6.375q-1.671875 1.328125 -3.453125 2.015625q-1.78125 0.671875 -3.65625 0.671875q-2.53125 0 -4.609375 -1.078125q-2.0625 -1.09375 -3.125 -3.140625q-1.046875 -2.0625 -1.046875 -4.59375q0 -2.5 1.046875 -4.671875q1.046875 -2.171875 3.015625 -3.21875q1.96875 -1.0625 4.53125 -1.0625q1.875 0 3.375 0.609375q1.5 0.59375 2.359375 1.671875q0.859375 1.078125 1.296875 2.8125l-2.046875 0.5625q-0.390625 -1.3125 -0.96875 -2.0625q-0.5625 -0.75 -1.640625 -1.203125q-1.0625 -0.453125 -2.359375 -0.453125q-1.5625 0 -2.703125 0.484375q-1.125 0.46875 -1.828125 1.25q-0.6875 0.765625 -1.078125 1.6875q-0.65625 1.59375 -0.65625 3.453125q0 2.296875 0.78125 3.84375q0.796875 1.546875 2.3125 2.296875q1.515625 0.75 3.203125 0.75q1.484375 0 2.890625 -0.5625q1.40625 -0.5625 2.125 -1.21875l0 -3.1875l-5.046875 0zm10.371094 -8.015625l0 -2.4375l2.109375 0l0 2.4375l-2.109375 0zm0 14.75l0 -12.453125l2.109375 0l0 12.453125l-2.109375 0zm13.441406 -1.53125q-1.171875 0.984375 -2.265625 1.40625q-1.078125 0.40625 -2.3125 0.40625q-2.046875 0 -3.15625 -1.0q-1.09375 -1.0 -1.09375 -2.5625q0 -0.921875 0.40625 -1.671875q0.421875 -0.75 1.09375 -1.203125q0.671875 -0.46875 1.515625 -0.703125q0.625 -0.15625 1.875 -0.3125q2.5625 -0.3125 3.765625 -0.734375q0.015625 -0.421875 0.015625 -0.546875q0 -1.28125 -0.609375 -1.8125q-0.796875 -0.71875 -2.390625 -0.71875q-1.5 0 -2.203125 0.53125q-0.703125 0.515625 -1.046875 1.84375l-2.0625 -0.28125q0.28125 -1.328125 0.921875 -2.140625q0.640625 -0.8125 1.859375 -1.25q1.21875 -0.453125 2.828125 -0.453125q1.59375 0 2.59375 0.375q1.0 0.375 1.46875 0.953125q0.46875 0.5625 0.65625 1.4375q0.09375 0.53125 0.09375 1.9375l0 2.8125q0 2.9375 0.140625 3.71875q0.140625 0.78125 0.53125 1.5l-2.203125 0q-0.328125 -0.65625 -0.421875 -1.53125zm-0.171875 -4.71875q-1.15625 0.46875 -3.453125 0.796875q-1.296875 0.1875 -1.84375 0.421875q-0.53125 0.234375 -0.828125 0.6875q-0.28125 0.453125 -0.28125 1.0q0 0.84375 0.625 1.40625q0.640625 0.5625 1.875 0.5625q1.21875 0 2.171875 -0.53125q0.953125 -0.53125 1.390625 -1.453125q0.34375 -0.71875 0.34375 -2.109375l0 -0.78125zm5.3945312 6.25l0 -12.453125l1.90625 0l0 1.78125q1.375 -2.0625 3.953125 -2.0625q1.125 0 2.0625 0.40625q0.953125 0.40625 1.421875 1.0625q0.46875 0.65625 0.65625 1.5625q0.125 0.578125 0.125 2.046875l0 7.65625l-2.109375 0l0 -7.578125q0 -1.28125 -0.25 -1.921875q-0.25 -0.640625 -0.875 -1.015625q-0.625 -0.390625 -1.46875 -0.390625q-1.34375 0 -2.328125 0.859375q-0.984375 0.859375 -0.984375 3.25l0 6.796875l-2.109375 0zm13.347656 0l0 -12.453125l1.90625 0l0 1.78125q1.375 -2.0625 3.953125 -2.0625q1.125 0 2.0625 0.40625q0.953125 0.40625 1.421875 1.0625q0.46875 0.65625 0.65625 1.5625q0.125 0.578125 0.125 2.046875l0 7.65625l-2.109375 0l0 -7.578125q0 -1.28125 -0.25 -1.921875q-0.25 -0.640625 -0.875 -1.015625q-0.625 -0.390625 -1.46875 -0.390625q-1.34375 0 -2.328125 0.859375q-0.984375 0.859375 -0.984375 3.25l0 6.796875l-2.109375 0zm13.363281 -14.75l0 -2.4375l2.109375 0l0 2.4375l-2.109375 0zm0 14.75l0 -12.453125l2.109375 0l0 12.453125l-2.109375 0zm12.3125 0l0 -17.1875l12.421875 0l0 2.03125l-10.15625 0l0 5.265625l9.5 0l0 2.015625l-9.5 0l0 5.84375l10.546875 0l0 2.03125l-12.8125 0zm20.289062 -1.890625l0.3125 1.859375q-0.890625 0.203125 -1.59375 0.203125q-1.15625 0 -1.796875 -0.359375q-0.625 -0.375 -0.890625 -0.96875q-0.25 -0.59375 -0.25 -2.484375l0 -7.171875l-1.546875 0l0 -1.640625l1.546875 0l0 -3.078125l2.09375 -1.265625l0 4.34375l2.125 0l0 1.640625l-2.125 0l0 7.28125q0 0.90625 0.109375 1.171875q0.125 0.25 0.375 0.40625q0.25 0.140625 0.71875 0.140625q0.34375 0 0.921875 -0.078125zm10.183594 -2.671875l2.078125 0.265625q-0.34375 2.15625 -1.75 3.375q-1.390625 1.203125 -3.4375 1.203125q-2.546875 0 -4.109375 -1.671875q-1.546875 -1.671875 -1.546875 -4.78125q0 -2.015625 0.671875 -3.53125q0.671875 -1.515625 2.03125 -2.265625q1.359375 -0.765625 2.96875 -0.765625q2.03125 0 3.3125 1.03125q1.296875 1.03125 1.65625 2.90625l-2.046875 0.328125q-0.296875 -1.265625 -1.046875 -1.890625q-0.734375 -0.640625 -1.796875 -0.640625q-1.59375 0 -2.59375 1.15625q-0.984375 1.140625 -0.984375 3.609375q0 2.5 0.953125 3.640625q0.96875 1.140625 2.515625 1.140625q1.234375 0 2.0625 -0.765625q0.84375 -0.765625 1.0625 -2.34375zm3.875 4.5625l0 -17.1875l2.109375 0l0 6.171875q1.484375 -1.71875 3.734375 -1.71875q1.375 0 2.390625 0.546875q1.03125 0.546875 1.46875 1.515625q0.4375 0.953125 0.4375 2.78125l0 7.890625l-2.109375 0l0 -7.890625q0 -1.578125 -0.6875 -2.296875q-0.6875 -0.71875 -1.9375 -0.71875q-0.9375 0 -1.765625 0.484375q-0.828125 0.484375 -1.1875 1.3125q-0.34375 0.828125 -0.34375 2.296875l0 6.8125l-2.109375 0zm21.878906 -4.015625l2.171875 0.28125q-0.515625 1.90625 -1.90625 2.96875q-1.390625 1.046875 -3.5625 1.046875q-2.734375 0 -4.34375 -1.671875q-1.59375 -1.6875 -1.59375 -4.734375q0 -3.140625 1.609375 -4.875q1.625 -1.734375 4.203125 -1.734375q2.5 0 4.078125 1.703125q1.59375 1.703125 1.59375 4.78125q0 0.1875 -0.015625 0.5625l-9.28125 0q0.109375 2.046875 1.15625 3.140625q1.046875 1.09375 2.609375 1.09375q1.15625 0 1.96875 -0.609375q0.828125 -0.609375 1.3125 -1.953125zm-6.9375 -3.40625l6.953125 0q-0.140625 -1.5625 -0.796875 -2.359375q-1.0 -1.21875 -2.609375 -1.21875q-1.453125 0 -2.453125 0.984375q-0.984375 0.96875 -1.09375 2.59375zm15.222656 7.421875l-4.734375 -12.453125l2.21875 0l2.671875 7.453125q0.4375 1.21875 0.796875 2.515625q0.28125 -0.984375 0.78125 -2.375l2.765625 -7.59375l2.171875 0l-4.703125 12.453125l-1.96875 0zm17.0625 -4.015625l2.171875 0.28125q-0.515625 1.90625 -1.90625 2.96875q-1.390625 1.046875 -3.5625 1.046875q-2.734375 0 -4.34375 -1.671875q-1.59375 -1.6875 -1.59375 -4.734375q0 -3.140625 1.609375 -4.875q1.625 -1.734375 4.203125 -1.734375q2.5 0 4.078125 1.703125q1.59375 1.703125 1.59375 4.78125q0 0.1875 -0.015625 0.5625l-9.28125 0q0.109375 2.046875 1.15625 3.140625q1.046875 1.09375 2.609375 1.09375q1.15625 0 1.96875 -0.609375q0.828125 -0.609375 1.3125 -1.953125zm-6.9375 -3.40625l6.953125 0q-0.140625 -1.5625 -0.796875 -2.359375q-1.0 -1.21875 -2.609375 -1.21875q-1.453125 0 -2.453125 0.984375q-0.984375 0.96875 -1.09375 2.59375zm11.738281 7.421875l0 -12.453125l1.890625 0l0 1.890625q0.734375 -1.328125 1.34375 -1.75q0.625 -0.421875 1.359375 -0.421875q1.0625 0 2.171875 0.6875l-0.734375 1.953125q-0.765625 -0.453125 -1.546875 -0.453125q-0.6875 0 -1.25 0.421875q-0.546875 0.40625 -0.78125 1.140625q-0.34375 1.125 -0.34375 2.46875l0 6.515625l-2.109375 0zm7.9921875 0l0 -12.453125l1.890625 0l0 1.890625q0.734375 -1.328125 1.34375 -1.75q0.625 -0.421875 1.359375 -0.421875q1.0625 0 2.171875 0.6875l-0.734375 1.953125q-0.765625 -0.453125 -1.546875 -0.453125q-0.6875 0 -1.25 0.421875q-0.546875 0.40625 -0.78125 1.140625q-0.34375 1.125 -0.34375 2.46875l0 6.515625l-2.109375 0zm7.9140625 4.796875l-0.234375 -1.984375q0.703125 0.1875 1.21875 0.1875q0.703125 0 1.125 -0.234375q0.421875 -0.234375 0.6875 -0.65625q0.203125 -0.3125 0.640625 -1.5625q0.0625 -0.1875 0.1875 -0.515625l-4.71875 -12.484375l2.265625 0l2.59375 7.21875q0.5 1.359375 0.90625 2.875q0.359375 -1.453125 0.859375 -2.828125l2.671875 -7.265625l2.109375 0l-4.734375 12.671875q-0.765625 2.046875 -1.1875 2.8125q-0.5625 1.046875 -1.296875 1.53125q-0.71875 0.484375 -1.734375 0.484375q-0.609375 0 -1.359375 -0.25z" fill-rule="nonzero"/><path fill="#000000" fill-opacity="0.0" d="m59.278214 253.12599l548.62994 0l0 73.16536l-548.62994 0z" fill-rule="evenodd"/><path fill="#ffff00" d="m70.13759 285.166l0 -17.1875l6.46875 0q1.71875 0 2.625 0.171875q1.265625 0.203125 2.109375 0.796875q0.859375 0.59375 1.375 1.671875q0.53125 1.0625 0.53125 2.328125q0 2.203125 -1.40625 3.71875q-1.390625 1.515625 -5.03125 1.515625l-4.40625 0l0 6.984375l-2.265625 0zm2.265625 -9.015625l4.4375 0q2.203125 0 3.125 -0.8125q0.9375 -0.828125 0.9375 -2.3125q0 -1.078125 -0.546875 -1.84375q-0.546875 -0.765625 -1.4375 -1.015625q-0.578125 -0.15625 -2.125 -0.15625l-4.390625 0l0 6.140625zm13.4453125 9.015625l0 -12.453125l1.890625 0l0 1.890625q0.734375 -1.328125 1.34375 -1.75q0.625 -0.421875 1.359375 -0.421875q1.0625 0 2.171875 0.6875l-0.734375 1.953125q-0.765625 -0.453125 -1.546875 -0.453125q-0.6875 0 -1.25 0.421875q-0.546875 0.40625 -0.78125 1.140625q-0.34375 1.125 -0.34375 2.46875l0 6.515625l-2.109375 0zm7.2265625 -6.21875q0 -3.46875 1.921875 -5.125q1.609375 -1.390625 3.921875 -1.390625q2.5625 0 4.1875 1.6875q1.625 1.6875 1.625 4.640625q0 2.40625 -0.71875 3.78125q-0.71875 1.375 -2.09375 2.140625q-1.375 0.765625 -3.0 0.765625q-2.625 0 -4.234375 -1.671875q-1.609375 -1.6875 -1.609375 -4.828125zm2.171875 0q0 2.390625 1.03125 3.578125q1.046875 1.1875 2.640625 1.1875q1.5625 0 2.609375 -1.1875q1.046875 -1.203125 1.046875 -3.65625q0 -2.3125 -1.0625 -3.5q-1.046875 -1.1875 -2.59375 -1.1875q-1.59375 0 -2.640625 1.1875q-1.03125 1.1875 -1.03125 3.578125zm11.863281 11.015625l-0.234375 -1.984375q0.703125 0.1875 1.21875 0.1875q0.703125 0 1.125 -0.234375q0.421875 -0.234375 0.6875 -0.65625q0.203125 -0.3125 0.640625 -1.5625q0.0625 -0.1875 0.1875 -0.515625l-4.71875 -12.484375l2.265625 0l2.59375 7.21875q0.5 1.359375 0.90625 2.875q0.359375 -1.453125 0.859375 -2.828125l2.671875 -7.265625l2.109375 0l-4.734375 12.671875q-0.765625 2.046875 -1.1875 2.8125q-0.5625 1.046875 -1.296875 1.53125q-0.71875 0.484375 -1.734375 0.484375q-0.609375 0 -1.359375 -0.25zm20.625 -8.8125l2.171875 0.28125q-0.515625 1.90625 -1.90625 2.96875q-1.390625 1.046875 -3.5625 1.046875q-2.734375 0 -4.34375 -1.671875q-1.59375 -1.6875 -1.59375 -4.734375q0 -3.140625 1.609375 -4.875q1.625 -1.734375 4.203125 -1.734375q2.5 0 4.078125 1.703125q1.59375 1.703125 1.59375 4.78125q0 0.1875 -0.015625 0.5625l-9.28125 0q0.109375 2.046875 1.15625 3.140625q1.046875 1.09375 2.609375 1.09375q1.15625 0 1.96875 -0.609375q0.828125 -0.609375 1.3125 -1.953125zm-6.9375 -3.40625l6.953125 0q-0.140625 -1.5625 -0.796875 -2.359375q-1.0 -1.21875 -2.609375 -1.21875q-1.453125 0 -2.453125 0.984375q-0.984375 0.96875 -1.09375 2.59375zm19.878906 2.859375l2.078125 0.265625q-0.34375 2.15625 -1.75 3.375q-1.390625 1.203125 -3.4375 1.203125q-2.546875 0 -4.109375 -1.671875q-1.546875 -1.671875 -1.546875 -4.78125q0 -2.015625 0.671875 -3.53125q0.671875 -1.515625 2.03125 -2.265625q1.359375 -0.765625 2.96875 -0.765625q2.03125 0 3.3125 1.03125q1.296875 1.03125 1.65625 2.90625l-2.046875 0.328125q-0.296875 -1.265625 -1.046875 -1.890625q-0.734375 -0.640625 -1.796875 -0.640625q-1.59375 0 -2.59375 1.15625q-0.984375 1.140625 -0.984375 3.609375q0 2.5 0.953125 3.640625q0.96875 1.140625 2.515625 1.140625q1.234375 0 2.0625 -0.765625q0.84375 -0.765625 1.0625 -2.34375zm8.484375 2.671875l0.3125 1.859375q-0.890625 0.203125 -1.59375 0.203125q-1.15625 0 -1.796875 -0.359375q-0.625 -0.375 -0.890625 -0.96875q-0.25 -0.59375 -0.25 -2.484375l0 -7.171875l-1.546875 0l0 -1.640625l1.546875 0l0 -3.078125l2.09375 -1.265625l0 4.34375l2.125 0l0 1.640625l-2.125 0l0 7.28125q0 0.90625 0.109375 1.171875q0.125 0.25 0.375 0.40625q0.25 0.140625 0.71875 0.140625q0.34375 0 0.921875 -0.078125zm1.2773438 -4.328125q0 -3.46875 1.921875 -5.125q1.609375 -1.390625 3.921875 -1.390625q2.5625 0 4.1875 1.6875q1.625 1.6875 1.625 4.640625q0 2.40625 -0.71875 3.78125q-0.71875 1.375 -2.09375 2.140625q-1.375 0.765625 -3.0 0.765625q-2.625 0 -4.234375 -1.671875q-1.609375 -1.6875 -1.609375 -4.828125zm2.171875 0q0 2.390625 1.03125 3.578125q1.046875 1.1875 2.640625 1.1875q1.5625 0 2.609375 -1.1875q1.046875 -1.203125 1.046875 -3.65625q0 -2.3125 -1.0625 -3.5q-1.046875 -1.1875 -2.59375 -1.1875q-1.59375 0 -2.640625 1.1875q-1.03125 1.1875 -1.03125 3.578125zm18.90625 6.21875l0 -17.1875l5.90625 0q2.015625 0 3.0625 0.25q1.484375 0.34375 2.515625 1.234375q1.359375 1.140625 2.03125 2.9375q0.6875 1.78125 0.6875 4.078125q0 1.953125 -0.46875 3.46875q-0.453125 1.515625 -1.171875 2.515625q-0.703125 0.984375 -1.5625 1.546875q-0.84375 0.5625 -2.046875 0.859375q-1.203125 0.296875 -2.765625 0.296875l-6.1875 0zm2.265625 -2.03125l3.671875 0q1.703125 0 2.65625 -0.3125q0.96875 -0.3125 1.546875 -0.890625q0.8125 -0.8125 1.265625 -2.171875q0.453125 -1.375 0.453125 -3.3125q0 -2.703125 -0.890625 -4.140625q-0.890625 -1.453125 -2.15625 -1.9375q-0.90625 -0.359375 -2.9375 -0.359375l-3.609375 0l0 13.125zm22.910156 0.5q-1.171875 0.984375 -2.265625 1.40625q-1.078125 0.40625 -2.3125 0.40625q-2.046875 0 -3.15625 -1.0q-1.09375 -1.0 -1.09375 -2.5625q0 -0.921875 0.40625 -1.671875q0.421875 -0.75 1.09375 -1.203125q0.671875 -0.46875 1.515625 -0.703125q0.625 -0.15625 1.875 -0.3125q2.5625 -0.3125 3.765625 -0.734375q0.015625 -0.421875 0.015625 -0.546875q0 -1.28125 -0.609375 -1.8125q-0.796875 -0.71875 -2.390625 -0.71875q-1.5 0 -2.203125 0.53125q-0.703125 0.515625 -1.046875 1.84375l-2.0625 -0.28125q0.28125 -1.328125 0.921875 -2.140625q0.640625 -0.8125 1.859375 -1.25q1.21875 -0.453125 2.828125 -0.453125q1.59375 0 2.59375 0.375q1.0 0.375 1.46875 0.953125q0.46875 0.5625 0.65625 1.4375q0.09375 0.53125 0.09375 1.9375l0 2.8125q0 2.9375 0.140625 3.71875q0.140625 0.78125 0.53125 1.5l-2.203125 0q-0.328125 -0.65625 -0.421875 -1.53125zm-0.171875 -4.71875q-1.15625 0.46875 -3.453125 0.796875q-1.296875 0.1875 -1.84375 0.421875q-0.53125 0.234375 -0.828125 0.6875q-0.28125 0.453125 -0.28125 1.0q0 0.84375 0.625 1.40625q0.640625 0.5625 1.875 0.5625q1.21875 0 2.171875 -0.53125q0.953125 -0.53125 1.390625 -1.453125q0.34375 -0.71875 0.34375 -2.109375l0 -0.78125zm10.003906 4.359375l0.3125 1.859375q-0.890625 0.203125 -1.59375 0.203125q-1.15625 0 -1.796875 -0.359375q-0.625 -0.375 -0.890625 -0.96875q-0.25 -0.59375 -0.25 -2.484375l0 -7.171875l-1.546875 0l0 -1.640625l1.546875 0l0 -3.078125l2.09375 -1.265625l0 4.34375l2.125 0l0 1.640625l-2.125 0l0 7.28125q0 0.90625 0.109375 1.171875q0.125 0.25 0.375 0.40625q0.25 0.140625 0.71875 0.140625q0.34375 0 0.921875 -0.078125zm10.183594 0.359375q-1.171875 0.984375 -2.265625 1.40625q-1.078125 0.40625 -2.3125 0.40625q-2.046875 0 -3.15625 -1.0q-1.09375 -1.0 -1.09375 -2.5625q0 -0.921875 0.40625 -1.671875q0.421875 -0.75 1.09375 -1.203125q0.671875 -0.46875 1.515625 -0.703125q0.625 -0.15625 1.875 -0.3125q2.5625 -0.3125 3.765625 -0.734375q0.015625 -0.421875 0.015625 -0.546875q0 -1.28125 -0.609375 -1.8125q-0.796875 -0.71875 -2.390625 -0.71875q-1.5 0 -2.203125 0.53125q-0.703125 0.515625 -1.046875 1.84375l-2.0625 -0.28125q0.28125 -1.328125 0.921875 -2.140625q0.640625 -0.8125 1.859375 -1.25q1.21875 -0.453125 2.828125 -0.453125q1.59375 0 2.59375 0.375q1.0 0.375 1.46875 0.953125q0.46875 0.5625 0.65625 1.4375q0.09375 0.53125 0.09375 1.9375l0 2.8125q0 2.9375 0.140625 3.71875q0.140625 0.78125 0.53125 1.5l-2.203125 0q-0.328125 -0.65625 -0.421875 -1.53125zm-0.171875 -4.71875q-1.15625 0.46875 -3.453125 0.796875q-1.296875 0.1875 -1.84375 0.421875q-0.53125 0.234375 -0.828125 0.6875q-0.28125 0.453125 -0.28125 1.0q0 0.84375 0.625 1.40625q0.640625 0.5625 1.875 0.5625q1.21875 0 2.171875 -0.53125q0.953125 -0.53125 1.390625 -1.453125q0.34375 -0.71875 0.34375 -2.109375l0 -0.78125zm11.5625 0.734375l2.140625 -0.1875q0.15625 1.28125 0.703125 2.109375q0.5625 0.828125 1.734375 1.34375q1.171875 0.5 2.640625 0.5q1.296875 0 2.296875 -0.375q1.0 -0.390625 1.484375 -1.0625q0.484375 -0.6875 0.484375 -1.484375q0 -0.796875 -0.46875 -1.40625q-0.46875 -0.609375 -1.546875 -1.015625q-0.6875 -0.265625 -3.0625 -0.828125q-2.359375 -0.578125 -3.3125 -1.078125q-1.234375 -0.640625 -1.84375 -1.59375q-0.59375 -0.96875 -0.59375 -2.140625q0 -1.3125 0.734375 -2.4375q0.75 -1.125 2.15625 -1.703125q1.421875 -0.59375 3.15625 -0.59375q1.90625 0 3.359375 0.609375q1.46875 0.609375 2.25 1.8125q0.796875 1.1875 0.84375 2.703125l-2.171875 0.171875q-0.171875 -1.640625 -1.1875 -2.46875q-1.015625 -0.828125 -3.0 -0.828125q-2.0625 0 -3.015625 0.765625q-0.9375 0.75 -0.9375 1.8125q0 0.921875 0.671875 1.515625q0.65625 0.609375 3.421875 1.234375q2.78125 0.625 3.8125 1.09375q1.5 0.6875 2.203125 1.75q0.71875 1.0625 0.71875 2.4375q0 1.375 -0.78125 2.59375q-0.78125 1.203125 -2.25 1.890625q-1.46875 0.671875 -3.3125 0.671875q-2.328125 0 -3.90625 -0.671875q-1.578125 -0.6875 -2.484375 -2.046875q-0.890625 -1.375 -0.9375 -3.09375zm24.632812 0.953125l2.078125 0.265625q-0.34375 2.15625 -1.75 3.375q-1.390625 1.203125 -3.4375 1.203125q-2.546875 0 -4.109375 -1.671875q-1.546875 -1.671875 -1.546875 -4.78125q0 -2.015625 0.671875 -3.53125q0.671875 -1.515625 2.03125 -2.265625q1.359375 -0.765625 2.96875 -0.765625q2.03125 0 3.3125 1.03125q1.296875 1.03125 1.65625 2.90625l-2.046875 0.328125q-0.296875 -1.265625 -1.046875 -1.890625q-0.734375 -0.640625 -1.796875 -0.640625q-1.59375 0 -2.59375 1.15625q-0.984375 1.140625 -0.984375 3.609375q0 2.5 0.953125 3.640625q0.96875 1.140625 2.515625 1.140625q1.234375 0 2.0625 -0.765625q0.84375 -0.765625 1.0625 -2.34375zm3.8906403 -10.1875l0 -2.4375l2.109375 0l0 2.4375l-2.109375 0zm0 14.75l0 -12.453125l2.109375 0l0 12.453125l-2.109375 0zm13.847656 -4.015625l2.171875 0.28125q-0.515625 1.90625 -1.90625 2.96875q-1.390625 1.046875 -3.5625 1.046875q-2.734375 0 -4.34375 -1.671875q-1.59375 -1.6875 -1.59375 -4.734375q0 -3.140625 1.609375 -4.875q1.625 -1.734375 4.203125 -1.734375q2.5 0 4.078125 1.703125q1.59375 1.703125 1.59375 4.78125q0 0.1875 -0.015625 0.5625l-9.28125 0q0.109375 2.046875 1.15625 3.140625q1.046875 1.09375 2.609375 1.09375q1.15625 0 1.96875 -0.609375q0.828125 -0.609375 1.3125 -1.953125zm-6.9375 -3.40625l6.953125 0q-0.140625 -1.5625 -0.796875 -2.359375q-1.0 -1.21875 -2.609375 -1.21875q-1.453125 0 -2.453125 0.984375q-0.984375 0.96875 -1.09375 2.59375zm11.753906 7.421875l0 -12.453125l1.90625 0l0 1.78125q1.375 -2.0625 3.953125 -2.0625q1.125 0 2.0625 0.40625q0.953125 0.40625 1.421875 1.0625q0.46875 0.65625 0.65625 1.5625q0.125 0.578125 0.125 2.046875l0 7.65625l-2.109375 0l0 -7.578125q0 -1.28125 -0.25 -1.921875q-0.25 -0.640625 -0.875 -1.015625q-0.625 -0.390625 -1.46875 -0.390625q-1.34375 0 -2.328125 0.859375q-0.984375 0.859375 -0.984375 3.25l0 6.796875l-2.109375 0zm21.472656 -4.5625l2.078125 0.265625q-0.34375 2.15625 -1.75 3.375q-1.390625 1.203125 -3.4375 1.203125q-2.546875 0 -4.109375 -1.671875q-1.546875 -1.671875 -1.546875 -4.78125q0 -2.015625 0.671875 -3.53125q0.671875 -1.515625 2.03125 -2.265625q1.359375 -0.765625 2.96875 -0.765625q2.03125 0 3.3125 1.03125q1.296875 1.03125 1.65625 2.90625l-2.046875 0.328125q-0.296875 -1.265625 -1.046875 -1.890625q-0.734375 -0.640625 -1.796875 -0.640625q-1.59375 0 -2.59375 1.15625q-0.984375 1.140625 -0.984375 3.609375q0 2.5 0.953125 3.640625q0.96875 1.140625 2.515625 1.140625q1.234375 0 2.0625 -0.765625q0.84375 -0.765625 1.0625 -2.34375zm12.40625 0.546875l2.171875 0.28125q-0.515625 1.90625 -1.90625 2.96875q-1.390625 1.046875 -3.5625 1.046875q-2.734375 0 -4.34375 -1.671875q-1.59375 -1.6875 -1.59375 -4.734375q0 -3.140625 1.609375 -4.875q1.625 -1.734375 4.203125 -1.734375q2.5 0 4.078125 1.703125q1.59375 1.703125 1.59375 4.78125q0 0.1875 -0.015625 0.5625l-9.28125 0q0.109375 2.046875 1.15625 3.140625q1.046875 1.09375 2.609375 1.09375q1.15625 0 1.96875 -0.609375q0.828125 -0.609375 1.3125 -1.953125zm-6.9375 -3.40625l6.953125 0q-0.140625 -1.5625 -0.796875 -2.359375q-1.0 -1.21875 -2.609375 -1.21875q-1.453125 0 -2.453125 0.984375q-0.984375 0.96875 -1.09375 2.59375zm22.453125 12.46875q-1.734375 -2.203125 -2.953125 -5.15625q-1.203125 -2.953125 -1.203125 -6.109375q0 -2.796875 0.90625 -5.34375q1.046875 -2.96875 3.25 -5.90625l1.515625 0q-1.421875 2.4375 -1.875 3.46875q-0.71875 1.625 -1.125 3.375q-0.5 2.203125 -0.5 4.40625q0 5.640625 3.5 11.265625l-1.515625 0zm16.492188 -11.078125l2.28125 0.578125q-0.71875 2.796875 -2.578125 4.28125q-1.859375 1.46875 -4.546875 1.46875q-2.765625 0 -4.515625 -1.125q-1.734375 -1.140625 -2.640625 -3.28125q-0.90625 -2.15625 -0.90625 -4.609375q0 -2.6875 1.015625 -4.6875q1.03125 -2.0 2.921875 -3.03125q1.890625 -1.03125 4.171875 -1.03125q2.578125 0 4.328125 1.3125q1.765625 1.3125 2.453125 3.6875l-2.234375 0.53125q-0.609375 -1.875 -1.75 -2.734375q-1.125 -0.859375 -2.84375 -0.859375q-1.984375 0 -3.3125 0.953125q-1.328125 0.953125 -1.875 2.546875q-0.53125 1.59375 -0.53125 3.296875q0 2.1875 0.625 3.828125q0.640625 1.640625 1.984375 2.453125q1.359375 0.796875 2.921875 0.796875q1.921875 0 3.234375 -1.09375q1.328125 -1.109375 1.796875 -3.28125zm4.0195312 -0.1875q0 -3.46875 1.921875 -5.125q1.609375 -1.390625 3.921875 -1.390625q2.5625 0 4.1875 1.6875q1.625 1.6875 1.625 4.640625q0 2.40625 -0.71875 3.78125q-0.71875 1.375 -2.09375 2.140625q-1.375 0.765625 -3.0 0.765625q-2.625 0 -4.234375 -1.671875q-1.609375 -1.6875 -1.609375 -4.828125zm2.171875 0q0 2.390625 1.03125 3.578125q1.046875 1.1875 2.640625 1.1875q1.5625 0 2.609375 -1.1875q1.046875 -1.203125 1.046875 -3.65625q0 -2.3125 -1.0625 -3.5q-1.046875 -1.1875 -2.59375 -1.1875q-1.59375 0 -2.640625 1.1875q-1.03125 1.1875 -1.03125 3.578125zm20.035156 6.21875l0 -1.578125q-1.1875 1.859375 -3.484375 1.859375q-1.484375 0 -2.734375 -0.8125q-1.25 -0.828125 -1.9375 -2.296875q-0.671875 -1.46875 -0.671875 -3.390625q0 -1.859375 0.609375 -3.375q0.625 -1.515625 1.859375 -2.328125q1.25 -0.8125 2.78125 -0.8125q1.125 0 2.0 0.484375q0.890625 0.46875 1.4375 1.234375l0 -6.171875l2.09375 0l0 17.1875l-1.953125 0zm-6.671875 -6.21875q0 2.390625 1.0 3.578125q1.015625 1.1875 2.390625 1.1875q1.390625 0 2.34375 -1.125q0.96875 -1.140625 0.96875 -3.453125q0 -2.5625 -0.984375 -3.75q-0.984375 -1.203125 -2.421875 -1.203125q-1.40625 0 -2.359375 1.15625q-0.9375 1.140625 -0.9375 3.609375zm20.472656 2.203125l2.171875 0.28125q-0.515625 1.90625 -1.90625 2.96875q-1.390625 1.046875 -3.5625 1.046875q-2.734375 0 -4.34375 -1.671875q-1.59375 -1.6875 -1.59375 -4.734375q0 -3.140625 1.609375 -4.875q1.625 -1.734375 4.203125 -1.734375q2.5 0 4.078125 1.703125q1.59375 1.703125 1.59375 4.78125q0 0.1875 -0.015625 0.5625l-9.28125 0q0.109375 2.046875 1.15625 3.140625q1.046875 1.09375 2.609375 1.09375q1.15625 0 1.96875 -0.609375q0.828125 -0.609375 1.3125 -1.953125zm-6.9375 -3.40625l6.953125 0q-0.140625 -1.5625 -0.796875 -2.359375q-1.0 -1.21875 -2.609375 -1.21875q-1.453125 0 -2.453125 0.984375q-0.984375 0.96875 -1.09375 2.59375zm11.738281 7.421875l0 -12.453125l1.890625 0l0 1.890625q0.734375 -1.328125 1.34375 -1.75q0.625 -0.421875 1.359375 -0.421875q1.0625 0 2.171875 0.6875l-0.734375 1.953125q-0.765625 -0.453125 -1.546875 -0.453125q-0.6875 0 -1.25 0.421875q-0.546875 0.40625 -0.78125 1.140625q-0.34375 1.125 -0.34375 2.46875l0 6.515625l-2.109375 0zm8.0078125 0l0 -17.1875l2.109375 0l0 6.171875q1.484375 -1.71875 3.734375 -1.71875q1.375 0 2.390625 0.546875q1.03125 0.546875 1.46875 1.515625q0.4375 0.953125 0.4375 2.78125l0 7.890625l-2.109375 0l0 -7.890625q0 -1.578125 -0.6875 -2.296875q-0.6875 -0.71875 -1.9375 -0.71875q-0.9375 0 -1.765625 0.484375q-0.828125 0.484375 -1.1875 1.3125q-0.34375 0.828125 -0.34375 2.296875l0 6.8125l-2.109375 0zm12.566406 -6.21875q0 -3.46875 1.921875 -5.125q1.609375 -1.390625 3.921875 -1.390625q2.5625 0 4.1875 1.6875q1.625 1.6875 1.625 4.640625q0 2.40625 -0.71875 3.78125q-0.71875 1.375 -2.09375 2.140625q-1.375 0.765625 -3.0 0.765625q-2.625 0 -4.234375 -1.671875q-1.609375 -1.6875 -1.609375 -4.828125zm2.171875 0q0 2.390625 1.03125 3.578125q1.046875 1.1875 2.640625 1.1875q1.5625 0 2.609375 -1.1875q1.046875 -1.203125 1.046875 -3.65625q0 -2.3125 -1.0625 -3.5q-1.046875 -1.1875 -2.59375 -1.1875q-1.59375 0 -2.640625 1.1875q-1.03125 1.1875 -1.03125 3.578125zm20.113281 6.21875l0 -1.828125q-1.453125 2.109375 -3.9375 2.109375q-1.109375 0 -2.0625 -0.421875q-0.953125 -0.421875 -1.421875 -1.0625q-0.453125 -0.640625 -0.640625 -1.5625q-0.140625 -0.625 -0.140625 -1.96875l0 -7.71875l2.109375 0l0 6.90625q0 1.65625 0.140625 2.234375q0.1875 0.828125 0.828125 1.3125q0.65625 0.46875 1.609375 0.46875q0.9375 0 1.765625 -0.484375q0.84375 -0.5 1.1875 -1.328125q0.34375 -0.84375 0.34375 -2.4375l0 -6.671875l2.109375 0l0 12.453125l-1.890625 0zm4.3476562 -3.71875l2.09375 -0.328125q0.171875 1.25 0.96875 1.921875q0.8125 0.671875 2.25 0.671875q1.453125 0 2.15625 -0.59375q0.703125 -0.59375 0.703125 -1.390625q0 -0.71875 -0.625 -1.125q-0.421875 -0.28125 -2.15625 -0.71875q-2.3125 -0.578125 -3.21875 -1.0q-0.890625 -0.4375 -1.359375 -1.1875q-0.453125 -0.765625 -0.453125 -1.671875q0 -0.828125 0.375 -1.53125q0.390625 -0.71875 1.046875 -1.1875q0.484375 -0.359375 1.328125 -0.609375q0.859375 -0.265625 1.828125 -0.265625q1.46875 0 2.578125 0.421875q1.109375 0.421875 1.625 1.15625q0.53125 0.71875 0.734375 1.921875l-2.0625 0.28125q-0.140625 -0.96875 -0.8125 -1.5q-0.671875 -0.546875 -1.90625 -0.546875q-1.453125 0 -2.078125 0.484375q-0.625 0.484375 -0.625 1.125q0 0.40625 0.265625 0.734375q0.25 0.34375 0.8125 0.5625q0.3125 0.125 1.859375 0.546875q2.234375 0.59375 3.109375 0.984375q0.890625 0.375 1.390625 1.109375q0.515625 0.71875 0.515625 1.796875q0 1.046875 -0.625 1.984375q-0.609375 0.9375 -1.765625 1.453125q-1.15625 0.5 -2.625 0.5q-2.421875 0 -3.703125 -1.0q-1.265625 -1.015625 -1.625 -3.0zm21.375 -0.296875l2.171875 0.28125q-0.515625 1.90625 -1.90625 2.96875q-1.390625 1.046875 -3.5625 1.046875q-2.734375 0 -4.34375 -1.671875q-1.59375 -1.6875 -1.59375 -4.734375q0 -3.140625 1.609375 -4.875q1.625 -1.734375 4.203125 -1.734375q2.5 0 4.078125 1.703125q1.59375 1.703125 1.59375 4.78125q0 0.1875 -0.015625 0.5625l-9.28125 0q0.109375 2.046875 1.15625 3.140625q1.046875 1.09375 2.609375 1.09375q1.15625 0 1.96875 -0.609375q0.828125 -0.609375 1.3125 -1.953125zm-6.9375 -3.40625l6.953125 0q-0.140625 -1.5625 -0.796875 -2.359375q-1.0 -1.21875 -2.609375 -1.21875q-1.453125 0 -2.453125 0.984375q-0.984375 0.96875 -1.09375 2.59375zm13.144531 12.46875l-1.515625 0q3.5 -5.625 3.5 -11.265625q0 -2.203125 -0.5 -4.359375q-0.390625 -1.765625 -1.109375 -3.375q-0.453125 -1.0625 -1.890625 -3.515625l1.515625 0q2.203125 2.9375 3.25 5.90625q0.90625 2.546875 0.90625 5.34375q0 3.15625 -1.21875 6.109375q-1.203125 2.953125 -2.9375 5.15625z" fill-rule="nonzero"/></g></svg>